<?xml version="1.0" encoding="utf-8"?>
<svg version="1.0" width="100pt" height="100px" viewBox="0 0 1920.000000 1920.000000"
     preserveAspectRatio="xMidYMid meet" xmlns="http://www.w3.org/2000/svg">
    <g transform="translate(0.000000,1920.000000) scale(0.100000,-0.100000)" fill="#000000" stroke="none">
        <path style="stroke: rgb(0, 0, 0); fill: rgb(247, 255, 14);"
              d="M 6327.041 14448.882 C 6323.716 14434.492 6323.587 14417.141 6325.418 14397.622 C 6296.205 14337.583 6266.67 14285.224 6235.697 14257.058 C 6173.15 14200.18 6103.034 14248.228 6043.874 14183.983 C 6005.912 14142.758 5985.13 14062.467 5963.172 13970.433 C 5959.416 13968.605 5955.859 13966.712 5952.529 13964.756 C 5902.55 13935.405 5903.354 13877.066 5852.051 13827.74 C 5780.31 13758.764 5594.632 13656.913 5532.345 13599.379 C 5495.723 13565.55 5476.459 13554.863 5468.404 13517.169 C 5462.166 13487.98 5483.067 13452.734 5497.058 13411.231 C 5279.282 13336.108 5018.704 13279.789 4856.397 13142.657 C 4604.265 12929.634 4348.348 12379.976 4280.927 12293.154 C 4262.745 12269.74 4269.723 12287.189 4253.524 12265.751 C 4203.135 12199.066 3937.369 11864.646 3897.281 11708.55 C 3868.273 11595.597 3903.952 11474.443 3933.819 11416.248 C 3953.523 11377.855 3959.675 11363.391 4016.029 11352.307 C 4148.458 11326.262 4671.527 11371.818 4892.935 11443.652 C 5062.3 11498.6 5137.587 11617.711 5276.581 11681.147 C 5420.031 11746.617 5684.405 11902.937 5742.437 11827.298 C 5816.243 11731.101 5506.957 11126.503 5456.121 10886.54 C 5357.817 10744.96 5228.76 10472.297 5176.102 10307.936 C 5127.519 10156.293 5178.734 9964.613 5121.296 9896.886 C 5078.798 9846.775 4972.862 9885.498 4929.473 9860.348 C 4895.729 9840.79 4879.493 9833.383 4865.531 9778.138 C 4833.909 9653.015 4888.402 9263.526 4883.8 8974.308 C 4878.694 8653.393 4871.614 8036.978 4828.994 7932.982 C 4816.024 7901.337 4799.344 7929.29 4783.322 7905.579 C 4747.688 7852.844 4704.572 7712.147 4664.574 7531.067 C 4612.079 7293.413 4529.502 6821.801 4487.064 6444.029 C 4443.624 6447.333 4403.391 6444.555 4381.406 6442.039 C 4351.647 6438.634 4346.092 6438.686 4326.6 6405.501 C 4276.748 6320.629 4191.099 5779.016 4153.045 5738.687 C 4142.346 5727.348 4141.881 5747.361 4125.642 5747.822 C 4109.795 5748.272 4077.781 5753.262 4041.769 5753.731 C 4002.528 5924.695 3935.883 6113.981 3868.399 6197.892 C 3823.795 6253.353 3756.584 6295.387 3691.313 6320.88 C 3681.292 6336.302 3670.81 6349.509 3659.786 6359.829 C 3585.4 6429.465 3447.459 6446.024 3394.887 6442.039 C 3365.307 6439.797 3358.111 6422.512 3340.081 6405.501 C 3318.423 6385.069 3284.698 6369.657 3276.139 6323.291 C 3261.098 6241.803 3294.951 6073.956 3349.215 5903.107 C 3420.592 5678.377 3631.568 5201.523 3733.718 5034.832 C 3733.427 5031.936 3733.141 5029.058 3732.861 5026.201 C 3710.817 4801.309 3696.108 4458.786 3769.399 4350.253 C 3816.854 4279.979 3934.73 4360.541 3988.625 4286.312 C 4078.513 4162.512 4034.195 3590.996 4098.239 3473.347 C 4128.596 3417.58 4169.457 3458.485 4207.852 3409.406 C 4280.311 3316.784 4375.515 3051.505 4445.122 2834.637 C 4366.007 2636.071 4294.707 2416.958 4288.254 2260.861 C 4281.799 2104.697 4321.039 1923.345 4388.998 1872.276 C 4443.58 1831.26 4563.991 1912.379 4619.271 1901.06 C 4659.337 1892.856 4661.802 1847.432 4705.623 1843.492 C 4776.559 1837.114 5001.408 1861.178 5036.64 1944.236 C 5045.714 1965.627 5041.185 1992.06 5028.565 2022.409 C 5029.063 2024.873 5029.525 2027.436 5029.951 2030.106 C 5039.402 2089.377 5001.302 2233.97 4967.392 2368.097 C 5025.084 2358.084 5112.314 2358.327 5166.968 2408.677 C 5255.371 2490.12 5314.605 2752.932 5358.791 2929.34 C 5402.331 3103.168 5397.529 3392.464 5431.866 3459.137 C 5445.514 3485.637 5457.19 3466.453 5477.539 3486.541 C 5519.593 3528.056 5641.761 3672.312 5669.362 3751.439 C 5688.359 3805.902 5659.442 3867.849 5666.071 3905.119 C 5676.093 3916.27 5686.142 3927.437 5696.206 3938.623 C 5707.357 3943.448 5720.24 3948.345 5733.303 3961.531 C 5774.371 4002.987 5872.303 4091.007 5901.644 4172.466 C 6029.611 4325.097 6144.607 4482.951 6216.787 4649.939 C 6292.646 4825.438 6359.942 5057.027 6406.998 5284.007 C 6452.575 5344.259 6492.983 5409.241 6509.73 5468.713 C 6554.681 5628.341 6542.765 5922.661 6473.192 6016.78 C 6468.405 6023.256 6462.794 6029.126 6456.513 6034.444 C 6453.683 6043.868 6450.535 6052.523 6447.06 6060.359 C 6396.923 6173.415 6231.741 6205.375 6144.827 6161.103 C 6076.2 6126.145 6013.891 6001.566 5962.004 5860.515 C 5926.667 5854.684 5890.454 5848.234 5861.185 5824.957 C 5793.169 5770.865 5763.578 5617.868 5687.631 5560.058 C 5615.606 5505.234 5480.679 5526.511 5422.732 5477.848 C 5372.709 5435.839 5372.188 5344.967 5340.522 5304.294 C 5323.556 5282.502 5302.067 5275.116 5282.829 5262.683 C 5276.065 5313.038 5267.189 5370.38 5267.447 5430.146 C 5268.127 5587.296 5260.997 5803.181 5303.984 6014.75 C 5353.859 6260.213 5528.737 6583.276 5578.018 6818.581 C 5618.294 7010.892 5560.469 7126.239 5614.555 7330.109 C 5688.489 7608.791 6011.992 8254.883 6071.277 8353.166 C 6086.713 8378.756 6082.209 8353.539 6098.681 8380.57 C 6168.992 8495.957 6547.149 9505.817 6710.688 9705.063 C 6790.31 9802.07 6870.989 9777.839 6920.78 9823.811 C 6962.168 9862.024 6961.125 9924.079 7002.99 9951.693 C 7049.263 9982.215 7129.332 9923.205 7194.813 9988.231 C 7325.677 10118.183 7485.854 10885.546 7605.863 11011.287 C 7661.247 11069.317 7700.974 11007.054 7761.148 11047.825 C 7862.242 11116.321 8031.409 11328.985 8135.66 11495.413 C 8207.897 11610.733 8288.315 11762.4 8340.292 11893.504 C 8368.479 11902.875 8395.617 11916.813 8418.828 11936.911 C 8467.891 11979.396 8507.684 12074.517 8546.078 12178.707 C 8552.315 12176.975 8558.624 12175.533 8564.979 12174.406 C 8626.884 12163.429 8736.562 12184.425 8784.205 12210.944 C 8819.387 12230.527 8835.138 12243.124 8848.146 12293.154 C 8864.432 12355.793 8862.171 12503.194 8852.046 12640.088 C 8901.823 12665.689 8946.518 12684.65 8966.894 12704.204 C 8987.259 12723.747 8971.976 12728.722 8994.297 12749.876 C 9046.635 12799.48 9299.579 12935.528 9368.809 12996.506 C 9407.417 13030.512 9423.651 13038.24 9432.75 13078.716 C 9445.837 13136.93 9424.456 13281.433 9396.212 13334.48 C 9376.575 13371.364 9358.851 13383.753 9314.002 13398.421 C 9242.992 13421.646 9126.113 13413.733 8969.499 13416.289 C 8966.918 13468.554 8957.397 13520.651 8932.404 13545.644 C 8885.018 13593.031 8740.189 13584.8 8681.533 13579.094 C 8642.734 13575.319 8617.422 13565.156 8597.91 13545.644 C 8578.398 13526.132 8568.235 13500.82 8564.46 13462.02 C 8563.572 13452.894 8563.049 13441.586 8562.911 13428.833 C 8308.279 13436.191 8018.531 13439.855 7834.224 13416.69 C 7613.196 13388.911 7391.77 13322.285 7304.426 13270.539 C 7259.523 13243.936 7248.925 13227.014 7240.485 13188.329 C 7236.21 13168.732 7233.348 13139.813 7234.022 13108.784 C 7220.54 13111.789 7207.06 13114.85 7193.85 13118.072 C 7196.318 13331.416 7189.453 13588.35 7196.111 13793.235 C 7259.96 13864.331 7322.997 13962.504 7350.098 13992.16 C 7365.812 14009.354 7369.062 14007.668 7377.502 14019.563 C 7387.639 14033.85 7389.138 14059.713 7404.905 14074.37 C 7423.29 14091.46 7468.73 14093.817 7487.115 14110.907 C 7502.882 14125.564 7493.355 14143.657 7514.518 14165.714 C 7554.276 14207.151 7721.552 14291.663 7761.148 14330.134 C 7781.076 14349.496 7771.858 14358.329 7788.551 14375.806 C 7815.102 14403.601 7899.017 14448.489 7925.568 14476.285 C 7942.262 14493.761 7929.818 14497.415 7952.971 14521.957 C 8015.417 14588.148 8384.671 14869.806 8446.231 14923.872 C 8466.33 14941.524 8460.991 14936.777 8473.634 14951.276 C 8496.074 14977.007 8506.951 15033.411 8574.113 15079.158 C 8700.85 15165.483 9195.186 15286.719 9314.002 15371.46 C 9374.047 15414.284 9366.769 15458.77 9396.212 15490.207 C 9422.046 15517.791 9450.958 15525.508 9478.422 15554.148 C 9511.826 15588.982 9566.432 15636.048 9578.901 15691.165 C 9581.008 15700.48 9582.677 15710.748 9583.834 15721.657 C 9881.493 15834.34 10255.384 15953.549 10355.328 16018.99 C 10408.358 16053.712 10377.677 16067.49 10419.269 16101.2 C 10499.361 16166.113 10823.879 16309.351 10885.126 16366.099 C 10910.851 16389.934 10883.801 16396.68 10912.529 16420.905 C 10990.492 16486.65 11340.837 16676.657 11579.343 16749.745 C 11824.1 16824.748 12044.656 16773.42 12364.904 16859.358 C 12807.517 16978.132 13842.425 17382.378 14027.372 17498.769 C 14086.777 17536.153 14082.527 17541.369 14091.313 17580.979 C 14103.588 17636.318 14109.068 17762.597 14054.775 17818.474 C 13987.846 17887.356 13767.419 17925.997 13661.995 17918.953 C 13579.328 17913.429 13534.351 17837.773 13461.037 17827.608 C 13382.96 17816.783 13304.004 17861.978 13205.273 17864.146 C 13085.158 17866.784 12863.46 17810.049 12785.089 17827.608 C 12742.588 17837.131 12756.67 17874.296 12712.013 17882.415 C 12622.699 17898.654 12303.873 17803.664 12200.485 17809.34 C 12143.696 17812.457 12148.611 17843.588 12090.871 17845.877 C 11982.656 17850.168 11722.156 17822.241 11542.805 17754.533 C 11350.176 17681.812 11075.718 17489.353 10976.47 17407.424 C 10924.812 17364.782 10962.432 17352.081 10894.26 17306.946 C 10708.09 17183.684 9552.012 16766.803 9423.616 16676.669 C 9390.695 16653.559 9423.703 16648.323 9396.212 16630.997 C 9320.236 16583.113 8922.668 16517.015 8747.667 16439.174 C 8604.342 16375.422 8497.924 16306.333 8400.559 16219.948 C 8323.851 16151.889 8239.399 16075.32 8194.648 15990.858 C 8067.946 15945.12 7795.564 15761.673 7669.804 15645.493 C 7627.11 15606.052 7590.776 15567.077 7559.736 15527.689 C 7510.478 15539.035 7455.73 15539.281 7414.039 15535.88 C 7341.886 15529.993 7273.37 15513.829 7213.082 15444.535 C 7121.511 15339.285 7086.155 14949.995 6984.721 14859.931 C 6914.606 14797.676 6777.897 14845.998 6738.091 14823.393 C 6716.622 14811.202 6730.901 14791.812 6710.688 14777.721 C 6675.066 14752.888 6567.378 14770.574 6500.596 14713.78 C 6459.833 14679.114 6422.039 14605.222 6384.946 14525.633 C 6363.718 14507.078 6336.048 14487.854 6327.041 14448.882 Z M 5441.006 12199.559 C 5431.754 12195.937 5422.388 12192.116 5412.922 12188.115 C 5420.726 12194.605 5427.975 12200.77 5434.583 12206.543 C 5436.676 12204.181 5438.818 12201.853 5441.006 12199.559 Z M 5084.758 12713.338 C 5100.422 12733.604 5101.499 12728.763 5108.173 12735.888 C 5099.174 12723.298 5099.55 12710.555 5084.758 12695.07 C 5077.414 12687.382 5065.683 12678.387 5051.99 12668.807 C 5066.712 12689.241 5077.943 12704.522 5084.758 12713.338 Z M 5176.102 12850.355 C 5194.144 12863.114 5221.135 12875.194 5254.037 12886.885 C 5221.397 12842.324 5193.376 12806.423 5176.102 12786.414 C 5146.718 12752.377 5127.741 12757.346 5112.161 12740.742 C 5129.386 12763.806 5126.363 12815.181 5176.102 12850.355 Z M 7605.347 12905.541 C 7589.079 12905.769 7570.87 12911.994 7552.951 12920.44 C 7576.514 12917.333 7595.179 12912.861 7605.347 12905.541 Z"/>
        <path d="M12165 18233 c-67 -15 -396 -116 -605 -185 -1691 -556 -3260 -1433 -4654 -2599 -1360 -1138 -2490 -2497 -3369 -4050 -36 -64 -79 -143 -96 -176 -90 -176 19 -366 209 -368 58 0 86 8 265 79 452 178 1545 560 1559 545 4 -3 -33 -86 -80 -185 -759 -1577 -1164 -3188 -1242 -4943 l-7 -154 -520 513 c-407 401 -531 518 -570 536 -163 77 -350 -44 -348 -225 1 -44 82 -327 373 -1301 401 -1344 804 -2697 1140 -3825 258 -869 234 -794 276 -844 100 -117 273 -119 372 -6 30 35 134 273 570 1306 589 1399 574 1364 1317 3124 405 959 529 1262 533 1302 13 143 -98 265 -242 266 -33 0 -77 -7 -96 -15 -19 -8 -296 -220 -615 -471 -319 -251 -583 -457 -587 -457 -3 0 20 105 53 233 251 975 600 1905 1045 2783 528 1041 1161 1981 1943 2884 340 392 828 893 1194 1225 128 116 194 182 207 210 70 145 -1 304 -155 350 -114 35 -1542 -37 -2300 -115 -49 -5 -91 -8 -92 -6 -9 9 328 317 596 545 1221 1043 2650 1884 4156 2446 1201 448 2389 713 3697 824 247 21 274 29 335 93 123 128 68 349 -100 403 -114 37 -1473 162 -2282 210 -709 41 -1788 69 -1880 48z m1245 -513 c400 -18 686 -36 670 -42 -8 -3 -136 -35 -285 -71 -1198 -292 -2411 -768 -3513 -1381 -1218 -678 -2283 -1485 -3279 -2488 -262 -264 -272 -275 -288 -331 -28 -97 -4 -187 67 -253 75 -72 120 -79 317 -54 380 48 962 105 1381 135 235 17 732 45 794 45 l39 0 -224 -228 c-1864 -1895 -3121 -4089 -3758 -6562 -92 -358 -221 -955 -221 -1024 0 -57 31 -128 76 -172 74 -74 190 -93 282 -45 20 11 161 118 313 238 442 349 633 499 645 506 6 4 -54 -147 -133 -336 -181 -427 -281 -663 -993 -2351 -421 -996 -576 -1353 -582 -1340 -4 11 -148 489 -318 1064 -171 575 -448 1506 -616 2070 -168 564 -308 1034 -311 1045 -5 20 69 -51 525 -500 128 -127 253 -242 278 -257 92 -53 200 -43 280 26 80 69 81 72 87 571 8 557 27 855 88 1345 185 1498 653 2945 1385 4280 113 205 119 218 122 283 4 57 0 75 -22 121 -27 56 -71 97 -131 122 -69 28 -125 19 -410 -68 -262 -79 -1069 -348 -1328 -441 l-128 -47 22 38 c53 87 260 407 338 522 1571 2320 3786 4119 6331 5142 358 144 706 267 1100 389 l225 69 460 -4 c253 -3 575 -10 715 -16z"/>
    </g>
</svg>